<?xml version="1.0" encoding="UTF-8" standalone="no"?>
<svg
   xmlns:dc="http://purl.org/dc/elements/1.1/"
   xmlns:cc="http://creativecommons.org/ns#"
   xmlns:rdf="http://www.w3.org/1999/02/22-rdf-syntax-ns#"
   xmlns:svg="http://www.w3.org/2000/svg"
   xmlns="http://www.w3.org/2000/svg"
   viewBox="0 0 2000.76 2200.6667"
   height="2645.6667"
   width="1889.76"
   xml:space="preserve"
   id="svg2"
   version="1.1"><metadata
     id="metadata8"><rdf:RDF><cc:Work
         rdf:about=""><dc:format>image/svg+xml</dc:format><dc:type
           rdf:resource="http://purl.org/dc/dcmitype/StillImage" /></cc:Work></rdf:RDF></metadata><defs
     id="defs6"><clipPath
       id="clipPath18"
       clipPathUnits="userSpaceOnUse"><path
         id="path16"
         d="M 0,1984.25 H 1417.32 V 0 H 0 Z" /></clipPath></defs><g
     transform="matrix(1.3333333,0,0,-1.3333333,0,3000.6667)"
     id="g10"><g
           transform="translate(769.789,1402.4753)"
           id="g28"><path
             id="path30"
             style="fill:#ffffff;fill-opacity:1;fill-rule:nonzero;stroke:none"
             d="m 0,0 c -0.089,14.445 -1.634,29.245 -5.342,43.774 -4.224,16.551 -10.699,32.105 -21.213,45.71 -19.275,24.943 -44.748,35.745 -76.059,32.661 -19.127,-1.884 -35.401,-9.909 -48.903,-23.553 -9.538,-9.639 -16.42,-20.998 -21.466,-33.52 -6.09,-15.114 -9.14,-30.879 -10.179,-47.095 -1.312,-20.487 0.207,-40.711 5.633,-60.55 4.579,-16.737 11.844,-32.161 23.405,-45.283 16.527,-18.758 37.361,-28.377 62.375,-28.467 17.666,-0.063 33.738,5.346 48.194,15.43 16.23,11.322 27.164,26.744 34.234,45.045 C -2.446,-38.051 -0.141,-19.469 0,0 M 59.386,5.129 C 59.197,-26.394 54.28,-55.85 42.228,-83.898 c -8.035,-18.699 -18.826,-35.603 -33.231,-50.071 -22.061,-22.156 -48.704,-35.155 -79.615,-39.426 -19.926,-2.753 -39.762,-2.187 -59.39,2.416 -25.163,5.902 -46.155,18.976 -63.737,37.687 -24.247,25.803 -39.649,56.205 -46.735,90.849 -4.588,22.429 -5.445,45.076 -3.254,67.81 2.801,29.062 10.823,56.555 25.813,81.787 15.571,26.21 36.534,46.746 64.183,60.023 22.783,10.94 46.899,15.543 72.04,13.23 57.251,-5.268 97.379,-35.268 122.428,-86.279 8.701,-17.719 13.596,-36.662 16.326,-56.19 1.576,-11.272 2.155,-22.6 2.33,-32.809" /></g><g
           transform="translate(896.2045,1299.7086)"
           id="g32"><path
             id="path34"
             style="fill:#ffffff;fill-opacity:1;fill-rule:nonzero;stroke:none"
             d="m 0,0 c 16.505,12.379 32.958,24.719 49.554,37.167 0.741,-1.075 1.33,-1.861 1.85,-2.691 15.382,-24.563 37.592,-39.297 65.697,-45.377 15.792,-3.416 31.765,-4.151 47.81,-2.073 9.276,1.202 17.95,4.178 25.838,9.333 16.665,10.889 20.638,28.967 17.057,44.013 -1.836,7.715 -6.203,13.717 -12.692,18.193 -6.402,4.415 -13.524,7.317 -21.002,9.185 -18.344,4.58 -36.773,8.818 -55.113,13.415 -13.481,3.38 -27.003,6.692 -40.272,10.793 -15.695,4.85 -29.283,13.43 -40.373,25.7 -10.986,12.156 -17.524,26.482 -20.125,42.565 -3.173,19.633 -1.542,38.881 5.917,57.407 9.039,22.452 24.995,38.652 46.175,49.922 13.8,7.343 28.579,11.719 43.977,14.079 14.926,2.288 29.927,2.718 44.956,1.29 35.785,-3.399 66.318,-17.773 91.192,-43.875 7.001,-7.347 13.321,-15.239 19.01,-23.579 -1.596,-2.257 -40.487,-33.79 -48.168,-39.08 -0.511,0.638 -1.071,1.268 -1.554,1.953 -3.271,4.637 -6.334,9.436 -9.819,13.906 -18.68,23.96 -43.426,34.938 -73.628,34.116 -11.139,-0.303 -21.889,-2.341 -32.064,-6.995 -5.927,-2.711 -11.288,-6.265 -15.714,-11.106 -8.222,-8.992 -10.734,-19.531 -8.153,-31.296 1.329,-6.062 4.653,-11.019 9.389,-15.029 4.566,-3.867 9.831,-6.475 15.38,-8.572 9.093,-3.437 18.616,-5.212 28.05,-7.369 21.789,-4.984 43.75,-9.3 65.105,-16.033 11.821,-3.727 23.143,-8.62 33.656,-15.262 17.232,-10.887 29.893,-25.489 36.43,-45.016 4.593,-13.72 5.696,-27.863 4.686,-42.203 -0.899,-12.766 -3.775,-25.071 -9.288,-36.676 -8.846,-18.625 -22.745,-32.499 -40.449,-42.746 -15.304,-8.858 -31.87,-14.15 -49.194,-17.26 -16.526,-2.966 -33.184,-3.584 -49.909,-2.613 -28.258,1.641 -54.834,8.832 -78.91,24.171 C 27.351,-36.208 12.685,-21.537 1.563,-3.362 1.098,-2.603 0.651,-1.833 0.222,-1.053 0.122,-0.872 0.128,-0.633 0,0" /></g><g
           transform="translate(301.4935,1233.5093)"
           id="g36"><path
             id="path38"
             style="fill:#ffffff;fill-opacity:1;fill-rule:nonzero;stroke:none"
             d="m 0,0 v 61.902 c 1.035,-0.134 1.895,-0.171 2.718,-0.365 7.913,-1.859 15.852,-3.526 23.998,-4.011 8.19,-0.488 16.258,0.17 24.064,2.763 15.302,5.083 24.148,15.764 26.585,31.62 0.808,5.263 1.158,10.626 1.3,15.955 0.23,8.678 0.144,17.366 0.145,26.05 0.007,67.467 0.004,134.935 0.004,202.403 v 4.236 c 2.514,0.814 52.677,1.107 58.816,0.364 0.047,-1.215 0.141,-2.503 0.141,-3.791 0.008,-29.28 0.007,-58.561 0.007,-87.841 0,-49.989 0.003,-99.977 -0.003,-149.966 C 137.774,89.3 137.719,79.288 136.452,69.318 132.296,36.631 114.778,14.519 83.937,3.044 69.381,-2.372 54.201,-4.32 38.734,-4.548 26.544,-4.728 14.511,-3.558 2.617,-0.909 2.075,-0.788 1.535,-0.646 1.007,-0.475 0.701,-0.376 0.419,-0.202 0,0" /></g></g></svg>